<?xml version="1.0" encoding="UTF-8" standalone="no"?>
<!-- Created with Inkscape (http://www.inkscape.org/) -->

<svg
   xmlns:dc="http://purl.org/dc/elements/1.1/"
   xmlns:cc="http://creativecommons.org/ns#"
   xmlns:rdf="http://www.w3.org/1999/02/22-rdf-syntax-ns#"
   xmlns:svg="http://www.w3.org/2000/svg"
   xmlns="http://www.w3.org/2000/svg"
   xmlns:sodipodi="http://sodipodi.sourceforge.net/DTD/sodipodi-0.dtd"
   xmlns:inkscape="http://www.inkscape.org/namespaces/inkscape"
   width="200"
   height="200"
   id="svg4987"
   version="1.1"
   inkscape:version="0.48.5 r10040"
   sodipodi:docname="New document 1">
  <defs
     id="defs4989" />
  <sodipodi:namedview
     id="base"
     pagecolor="#ffffff"
     bordercolor="#666666"
     borderopacity="1.0"
     inkscape:pageopacity="0.0"
     inkscape:pageshadow="2"
     inkscape:zoom="0.35"
     inkscape:cx="375"
     inkscape:cy="520"
     inkscape:document-units="px"
     inkscape:current-layer="layer1"
     showgrid="false"
     inkscape:window-width="1366"
     inkscape:window-height="706"
     inkscape:window-x="-8"
     inkscape:window-y="-8"
     inkscape:window-maximized="1" />
  <metadata
     id="metadata4992">
    <rdf:RDF>
      <cc:Work
         rdf:about="">
        <dc:format>image/svg+xml</dc:format>
        <dc:type
           rdf:resource="http://purl.org/dc/dcmitype/StillImage" />
        <dc:title></dc:title>
      </cc:Work>
    </rdf:RDF>
  </metadata>
  <g
     inkscape:label="Layer 1"
     inkscape:groupmode="layer"
     id="layer1"
     transform="translate(0,-852.36218)">
    <g
       transform="translate(94.290839,291.16813)"
       id="g5051">
      <path
         sodipodi:nodetypes="ccccccccccccc"
         inkscape:connector-curvature="0"
         id="path5053"
         d="m -12.505127,721.19407 0,5 5.0000004,0 0,5 5,0 0,5 5,0 0,-5 5,0 0,-5 4.9999996,0 0,-5 z"
         style="fill:#7e1c13;fill-opacity:1;fill-rule:nonzero;stroke:none" />
      <rect
         style="fill:#7e1c13;fill-opacity:1;fill-rule:nonzero;stroke:none"
         id="rect5055"
         width="10.000002"
         height="5.0000024"
         x="-17.505129"
         y="716.19409"
         ry="0" />
      <rect
         style="fill:#7e1c13;fill-opacity:1;fill-rule:nonzero;stroke:none"
         id="rect5057"
         width="9.9999981"
         height="5.0000024"
         x="7.4948716"
         y="716.19409"
         ry="0" />
      <path
         sodipodi:nodetypes="ccccccccccccccccccccccc"
         inkscape:connector-curvature="0"
         id="path5059"
         d="m -22.505127,591.19402 0,125.00005 5,0 0,-15.00005 35,0 0,15.00005 5,0 0,-125.00005 -5,0 0,10 -35,0 0,-10 z m 5,15 35,0 0,5 -35,0 z m 0,10 35,0 c 0,26.66667 0,53.33333 0,80 l -35,0 c 0,-26.66667 0,-53.33333 0,-80 z"
         style="fill:#7e1c13;fill-opacity:1;fill-rule:nonzero;stroke:none" />
      <rect
         ry="0"
         y="586.19403"
         x="-17.505129"
         height="5.0000024"
         width="35"
         id="rect5061"
         style="fill:#7e1c13;fill-opacity:1;fill-rule:nonzero;stroke:none" />
      <rect
         ry="0"
         y="701.19403"
         x="-7.5051284"
         height="20.000006"
         width="15"
         id="rect5063"
         style="fill:#f8de8f;fill-opacity:1;fill-rule:nonzero;stroke:none" />
      <rect
         y="616.19403"
         x="-7.5051284"
         height="80"
         width="15"
         id="rect5065"
         style="fill:#2a7fff;fill-opacity:1;fill-rule:nonzero;stroke:none" />
      <rect
         style="fill:#0066ff;fill-opacity:1;fill-rule:nonzero;stroke:none"
         id="rect5067"
         width="10"
         height="80"
         x="-17.505129"
         y="616.19403" />
      <rect
         y="616.19403"
         x="7.4948716"
         height="80"
         width="10"
         id="rect5069"
         style="fill:#0066ff;fill-opacity:1;fill-rule:nonzero;stroke:none" />
      <path
         sodipodi:nodetypes="cccccccccccccc"
         inkscape:connector-curvature="0"
         id="path5071"
         d="m -17.505127,701.19402 0,15.00005 5,0 0,5 5.0000004,0 0,-20.00005 z m 25.0000004,0 0,20.00005 4.9999996,0 0,-5 5,0 0,-15.00005 z"
         style="fill:#f4b453;fill-opacity:1;fill-rule:nonzero;stroke:none" />
      <rect
         style="fill:#fad9d2;fill-opacity:1;fill-rule:nonzero;stroke:none"
         id="rect5073"
         width="15"
         height="10"
         x="-7.5051284"
         y="591.19403" />
      <rect
         y="591.19403"
         x="-17.505129"
         height="10"
         width="10"
         id="rect5075"
         style="fill:#f2b6a6;fill-opacity:1;fill-rule:nonzero;stroke:none" />
      <rect
         style="fill:#f2b6a6;fill-opacity:1;fill-rule:nonzero;stroke:none"
         id="rect5077"
         width="10"
         height="10"
         x="7.4948716"
         y="591.19403" />
      <rect
         y="606.19403"
         x="7.4948716"
         height="5.0000024"
         width="10"
         id="rect5079"
         style="fill:#b3b3b3;fill-opacity:1;fill-rule:nonzero;stroke:none" />
      <rect
         style="fill:#b3b3b3;fill-opacity:1;fill-rule:nonzero;stroke:none"
         id="rect5081"
         width="10"
         height="5.0000024"
         x="-17.505129"
         y="606.19403" />
      <rect
         style="fill:#e0d4d9;fill-opacity:1;fill-rule:nonzero;stroke:none"
         id="rect5083"
         width="15"
         height="5.0000024"
         x="-7.5051284"
         y="606.19403" />
    </g>
  </g>
</svg>
